<svg xmlns="http://www.w3.org/2000/svg" viewBox="0 0 512 391.21"><title>envelope</title><g id="Слой_2" data-name="Слой 2"><g id="Слой_1-2" data-name="Слой 1"><path d="M512,368.61a4.51,4.51,0,0,0-.88,1.18c-5,16.14-12.19,21.43-29,21.43H29.94c-16.81,0-23.85-5.2-29.06-21.41A4.71,4.71,0,0,0,0,368.61q0-173,0-346a4.47,4.47,0,0,0,.89-1.18C5.94,5.29,13.08,0,29.89,0H482.05c16.79,0,23.86,5.22,29.06,21.41a4.71,4.71,0,0,0,.88,1.19Zm-256,7.15q113,0,226,0c10.56,0,13.42-2.87,13.42-13.19q0-167.22,0-334.45c0-9.45-3-12.62-12.47-12.62q-226.71,0-453.43,0c-10.1,0-12.92,3-12.92,13.17q0,167,0,333.95c0,1.17,0,2.33,0,3.5.06,5.06,2.64,8.15,7.53,9.09a39.23,39.23,0,0,0,7.44.54Q143.79,375.78,256,375.76Z"/><path d="M255.26,221.27c-7.85-.14-15.34-3.22-22-8.8Q195.68,180.74,158,149.13L39.72,49.82c-6.31-5.3-6.12-12.45.36-15.14,3.75-1.56,6.43.33,9,2.5Q88,69.78,126.79,102.42q58.16,48.85,116.33,97.69c8.87,7.44,17.07,7.33,26-.18Q364.81,119.57,460.47,39.2c.77-.64,1.52-1.29,2.3-1.92,5.16-4.14,9.42-4.17,12.65-.11,2.8,3.53,1.8,8.46-2.61,12.17q-21,17.71-42.1,35.36-75.2,63.17-150.36,126.38C273.23,217.08,265.58,221.2,255.26,221.27Z"/><path d="M169.75,222.74a19.61,19.61,0,0,1-2.73,4.69q-42.85,46.07-85.84,92-15.85,17-31.68,34c-3.83,4.1-7.35,4.92-11,2.57-4.93-3.19-5.06-8.43-.32-13.51q17.54-18.81,35.08-37.6,41.07-44,82.16-87.93c2.46-2.63,5.14-4.72,9.16-3.24C168.19,215,169.89,217.52,169.75,222.74Z"/><path d="M478,349.59c-2.18,2.39-3.81,5-6.16,6.56-3.33,2.16-6.42.29-8.83-2.26q-13.72-14.52-27.32-29.15L354.3,237.46c-3.07-3.29-6.18-6.53-9.2-9.85-3.64-4-4-9-.85-12.05,3.62-3.53,8.14-3.12,12.2,1.22q58.63,62.77,117.19,125.6C475.24,344.1,476.16,346.46,478,349.59Z"/></g></g></svg>