<svg xmlns="http://www.w3.org/2000/svg" viewBox="0 0 415.62 512"><title>lock</title><g id="Слой_2" data-name="Слой 2"><g id="Слой_1-2" data-name="Слой 1"><path d="M64.83,512c-3.39-.69-6.76-1.43-10.16-2C23.24,504.23-.17,475.09,0,443.52q.5-92.94,0-185.88c-.11-29.28,20.42-57.56,51.28-65.1,4.58-1.12,5.81-3.08,5.75-7.44-.2-15.15.06-30.31-.1-45.47C56.57,102.86,70.13,71.82,95.82,46,120.63,21.06,150.9,7,185.65,2.28,191.38,1.51,197.11.76,202.83,0h10c5.73.76,11.48,1.42,17.19,2.29,52.43,8,92.58,33.8,116.8,81.91,8.66,17.2,12.2,35.76,11.92,55.07-.23,15.33.07,30.67-.12,46-.05,4.15,1.11,6.14,5.44,7.19a66.81,66.81,0,0,1,51.46,65c.17,62.17-.11,124.33.11,186.5.12,34.38-27.4,64.05-60.53,66.88a23,23,0,0,0-4.26,1.2Zm142.86-18.58q70.23,0,140.45,0a49.86,49.86,0,0,0,50-50.15q.08-92.47,0-184.94c0-27.76-22.25-50.48-50-50.52q-140.45-.24-280.9,0c-27.45.05-49.74,22.86-49.77,50.24q-.1,92.72,0,185.44c.06,30.93,26.7,50.44,50.23,50.12C114.38,493,161,493.42,207.69,493.42ZM208,190.37c42.47,0,84.95-.06,127.42.09,4.59,0,6-1.33,5.91-5.92-.26-15.15-.14-30.31-.09-45.47.12-33.21-12.66-60.92-36.59-83.38-26.52-24.88-58.42-36.6-94.72-37.18C177.15,18,147.4,27,121.44,46.86c-30.75,23.58-47.38,54.63-47,94,.13,14.32,0,28.65,0,43,0,6.51,0,6.53,6.64,6.53Z"/><path d="M244.82,332.32c0,10,.34,20-.07,30a36.86,36.86,0,0,1-33.86,35.25c-17.83,1.6-34.68-10.52-39.08-28.26a35.73,35.73,0,0,1-1-8.39c-.08-19.33-.33-38.66,0-58,.53-29,31-46.14,55.91-31.47,11.71,6.89,18,17.53,18.1,31.37.08,9.83,0,19.66,0,29.49ZM227.24,332c0-9.82.1-19.64,0-29.46a19.36,19.36,0,0,0-19.39-18.8c-10.46,0-19.33,8.48-19.38,18.84q-.16,29.21,0,58.42a19.39,19.39,0,0,0,38.78,0C227.32,351.26,227.25,341.61,227.24,332Z"/></g></g></svg>