<svg xmlns="http://www.w3.org/2000/svg" viewBox="0 0 512 512"><title>phone</title><g id="Слой_2" data-name="Слой 2"><g id="Слой_1-2" data-name="Слой 1"><path d="M94,0c1.88.56,3.76,1.09,5.63,1.68a31.2,31.2,0,0,1,17.3,12.8c22.8,34.26,45.74,68.43,68.43,102.76,9,13.69,6.17,29.93-6.7,40.1q-17.46,13.78-35.1,27.32c-9.86,7.6-10.69,12.3-5,23.5,16.12,31.52,38.57,58.24,63.07,83.37S251.21,341,280.87,360c8.25,5.3,16.9,10,25.51,14.73,7.67,4.2,13.47,3,18.93-3.9,9.31-11.75,18.46-23.62,27.64-35.47,12.23-15.79,27.44-18.27,44.11-7.15q31.19,20.8,62.38,41.58c1.5,1,3.06,1.9,5.48,3.4,3.66-7.53,7.36-14.53,10.53-21.75a225.77,225.77,0,0,0,19-74.53c5.89-79.08-20.51-145.65-78.82-199-34.22-31.34-75-50.32-121-57.25-11.8-1.78-23.81-2.21-35.74-3-6-.41-9.48-3-9.53-7.9-.05-5.12,3-7.76,9.4-7.75a245.39,245.39,0,0,1,130,36.55c54.66,33.38,91.63,80.94,111.09,142a231.33,231.33,0,0,1,11,62.66A84.37,84.37,0,0,0,512,252v7c-.37,2.27-.87,4.54-1.1,6.83-1.2,11.56-1.65,23.25-3.63,34.68A241.88,241.88,0,0,1,480,377.75c-1.7,3-1.54,5,1.64,6.94,5.81,3.58,11.42,7.5,17.07,11.33a28,28,0,0,1,12,18.29A26.64,26.64,0,0,0,512,418v4c-1.6,4.31-2.64,8.93-4.9,12.87-7.6,13.26-16,26.06-23.4,39.42-11.27,20.32-28.35,31.51-51.14,34.53-7.53,1-15,2.11-22.56,3.18h-7a36.42,36.42,0,0,0-5.8-1.13c-19.76-.68-38.82-4.84-57.56-11a18,18,0,0,0-10.06-.15c-39.32,11.46-79.14,14-119.32,6-79.47-15.85-138.53-59.9-177.69-130.62-15.39-27.8-24.22-57.88-28-89.36-1.11-9.23-1.22-18.59-1.52-27.9-.2-6.33,2.58-9.52,7.63-9.52s7.85,3.44,8,9.39c0,.5,0,1,0,1.5,1.41,14.37,1.53,29,4.46,43.06,14.7,70.48,53.11,124.47,115.36,160.82a224.52,224.52,0,0,0,116.63,31.19c11.78-.09,23.58-1.07,35.32-2.14,6.08-.55,12.05-2.21,19.44-3.63a38.29,38.29,0,0,0-3.41-2.35c-27-12.87-52.07-28.91-75.95-46.85-44.92-33.76-85.17-72.56-122.42-114.5-32.18-36.23-61-74.9-82-118.85-11.77-24.57-20.69-50-23.82-77.3C1.57,123.13.74,117.57,0,112q0-5,0-10c1.13-8.18,2.09-16.39,3.41-24.54,3-18.69,11-34.93,27.59-44.77C50.34,21.25,68.19,7,90,0ZM15.34,107.09l1.24.19c-.5,19.7,3.49,38.69,9.5,57.28C37,198.48,54.34,229.16,74.92,258c43.17,60.48,94.89,112.88,152.68,159.33,31.51,25.33,65.23,47.27,103,62.42,32.18,12.91,65.19,19.46,100,13.67,16.09-2.68,29.27-9.44,37.77-24,8-13.66,16.28-27.12,24.36-40.71,5-8.45,3.43-15.52-4.8-21q-50-33.45-100.13-66.8c-8.83-5.88-15.49-4.73-22.07,3.7-9.43,12.07-18.74,24.23-28.21,36.27s-23.86,15.47-37,8.49C290,383.82,279.69,378,269.8,371.55c-29-18.82-53.51-42.81-77.64-67.26-26.79-27.15-51-56.25-68.48-90.45-7.94-15.51-5.13-29.55,8.6-40.21q18-13.94,35.88-27.93c7.06-5.53,8.69-12.68,4-19.79q-34-51.46-68.38-102.72c-4.89-7.29-12.14-8.74-19.63-4.31C69.53,27.52,54.94,36.21,40.48,45.1,30.24,51.39,23.26,60.51,20.8,72.27,18.4,83.75,17.11,95.48,15.34,107.09Z"/></g></g></svg>