<svg xmlns="http://www.w3.org/2000/svg" viewBox="0 0 415.62 512"><title>unlock</title><g id="Слой_2" data-name="Слой 2"><g id="Слой_1-2" data-name="Слой 1"><path d="M212.83,0c5.73.76,11.48,1.42,17.19,2.29,52.43,8,92.58,33.8,116.8,81.91,8.66,17.2,12.2,35.76,11.92,55.07-.23,15.33.07,30.67-.12,46-.05,4.15,1.11,6.14,5.44,7.19a66.81,66.81,0,0,1,51.46,65c.17,62.17-.11,124.33.11,186.5.12,34.38-27.4,64.05-60.53,66.88a23,23,0,0,0-4.26,1.2h-286c-3.39-.69-6.77-1.43-10.17-2.05C23.12,504.2-.18,474.95,0,443.48.36,380.33,0,317.18.26,254c.14-29.85,26.38-58.79,56-62.64a116.58,116.58,0,0,1,14.9-1q131.47-.09,262.93,0c7.13,0,7.13,0,7.14-7,0-14.33-.08-28.66,0-43,.27-39.22-16.53-70-47-93.56-29.15-22.52-62.84-31.15-99-27.9C151.43,22.84,115.7,42,91.3,79.59a104.39,104.39,0,0,0-16.85,55.61c-.15,6.87-3.46,11.18-8.76,11.17s-8.83-4.36-8.64-11.15c1.26-45.6,22.62-80.23,59-106.16,24.13-17.2,51.36-26.21,81-27.86A38.2,38.2,0,0,0,202.83,0Zm-5.51,493.42q70.48,0,141,0a49.83,49.83,0,0,0,49.9-49.78q.11-92.72,0-185.44c0-27.48-22.15-50.3-49.65-50.36q-140.7-.32-281.4,0c-27.44.06-49.61,22.93-49.64,50.37q-.08,93,0,185.94c0,27,22.51,49.27,49.37,49.28Q137.1,493.45,207.33,493.42Z"/><path d="M244.69,332.5c0,10.49.48,21-.11,31.48-1,18.65-17.46,33.52-36.37,33.62-19.25.11-36.35-14.58-37-33.38-.78-21.63-.76-43.33,0-65,.66-18.4,17.41-32.89,36.26-32.94,19.36-.05,35.85,14.14,37,32.7.7,11.12.13,22.31.13,33.47ZM227.25,332c0-9.82.1-19.64,0-29.46a19.36,19.36,0,0,0-19.38-18.81c-10.46,0-19.33,8.48-19.39,18.83q-.16,29.21,0,58.42a19.39,19.39,0,0,0,38.78,0C227.32,351.27,227.25,341.61,227.25,332Z"/></g></g></svg>